<svg width="178" height="166" viewBox="0 0 178 166" fill="none" xmlns="http://www.w3.org/2000/svg">
<g filter="url(#filter0_d_2_2)">
<rect x="151" y="130" width="24" height="32" fill="white"/>
</g>
<g filter="url(#filter1_d_2_2)">
<rect x="103" y="66" width="48" height="96" fill="white"/>
</g>
<g filter="url(#filter2_d_2_2)">
<path fill-rule="evenodd" clip-rule="evenodd" d="M61.7063 162.693C93.5767 162.693 119.413 137.018 119.413 105.346C119.413 73.6748 93.5767 48 61.7063 48C29.836 48 4 73.6748 4 105.346C4 137.018 29.836 162.693 61.7063 162.693ZM61.5326 133.984C77.2907 133.984 90.0652 121.003 90.0652 104.992C90.0652 88.9801 77.2907 76 61.5326 76C45.7745 76 33 88.9801 33 104.992C33 121.003 45.7745 133.984 61.5326 133.984Z" fill="white"/>
</g>
<g filter="url(#filter3_d_2_2)">
<path fill-rule="evenodd" clip-rule="evenodd" d="M121.089 3H73V78.2967C83.0481 82.7747 90.0652 92.9576 90.0652 104.803C90.0652 116.648 83.0481 126.831 73 131.309V162H121.089V3Z" fill="white"/>
</g>
<g filter="url(#filter4_i_2_2)">
<path fill-rule="evenodd" clip-rule="evenodd" d="M61.5326 133.984C77.2907 133.984 90.0652 121.003 90.0652 104.992C90.0652 88.9801 77.2907 76 61.5326 76C45.7745 76 33 88.9801 33 104.992C33 121.003 45.7745 133.984 61.5326 133.984ZM61.4266 119.673C69.3942 119.673 75.8532 113.254 75.8532 105.337C75.8532 97.4187 69.3942 91 61.4266 91C53.459 91 47 97.4187 47 105.337C47 113.254 53.459 119.673 61.4266 119.673Z" fill="white"/>
</g>
<defs>
<filter id="filter0_d_2_2" x="148" y="127" width="30" height="38" filterUnits="userSpaceOnUse" color-interpolation-filters="sRGB">
<feFlood flood-opacity="0" result="BackgroundImageFix"/>
<feColorMatrix in="SourceAlpha" type="matrix" values="0 0 0 0 0 0 0 0 0 0 0 0 0 0 0 0 0 0 127 0" result="hardAlpha"/>
<feOffset/>
<feGaussianBlur stdDeviation="1.5"/>
<feComposite in2="hardAlpha" operator="out"/>
<feColorMatrix type="matrix" values="0 0 0 0 0 0 0 0 0 0 0 0 0 0 0 0 0 0 0.25 0"/>
<feBlend mode="normal" in2="BackgroundImageFix" result="effect1_dropShadow_2_2"/>
<feBlend mode="normal" in="SourceGraphic" in2="effect1_dropShadow_2_2" result="shape"/>
</filter>
<filter id="filter1_d_2_2" x="100" y="63" width="54" height="102" filterUnits="userSpaceOnUse" color-interpolation-filters="sRGB">
<feFlood flood-opacity="0" result="BackgroundImageFix"/>
<feColorMatrix in="SourceAlpha" type="matrix" values="0 0 0 0 0 0 0 0 0 0 0 0 0 0 0 0 0 0 127 0" result="hardAlpha"/>
<feOffset/>
<feGaussianBlur stdDeviation="1.5"/>
<feComposite in2="hardAlpha" operator="out"/>
<feColorMatrix type="matrix" values="0 0 0 0 0 0 0 0 0 0 0 0 0 0 0 0 0 0 0.25 0"/>
<feBlend mode="normal" in2="BackgroundImageFix" result="effect1_dropShadow_2_2"/>
<feBlend mode="normal" in="SourceGraphic" in2="effect1_dropShadow_2_2" result="shape"/>
</filter>
<filter id="filter2_d_2_2" x="0" y="45" width="121.413" height="120.693" filterUnits="userSpaceOnUse" color-interpolation-filters="sRGB">
<feFlood flood-opacity="0" result="BackgroundImageFix"/>
<feColorMatrix in="SourceAlpha" type="matrix" values="0 0 0 0 0 0 0 0 0 0 0 0 0 0 0 0 0 0 127 0" result="hardAlpha"/>
<feOffset dx="-1"/>
<feGaussianBlur stdDeviation="1.5"/>
<feComposite in2="hardAlpha" operator="out"/>
<feColorMatrix type="matrix" values="0 0 0 0 0 0 0 0 0 0 0 0 0 0 0 0 0 0 0.25 0"/>
<feBlend mode="normal" in2="BackgroundImageFix" result="effect1_dropShadow_2_2"/>
<feBlend mode="normal" in="SourceGraphic" in2="effect1_dropShadow_2_2" result="shape"/>
</filter>
<filter id="filter3_d_2_2" x="70" y="0" width="54.0886" height="165" filterUnits="userSpaceOnUse" color-interpolation-filters="sRGB">
<feFlood flood-opacity="0" result="BackgroundImageFix"/>
<feColorMatrix in="SourceAlpha" type="matrix" values="0 0 0 0 0 0 0 0 0 0 0 0 0 0 0 0 0 0 127 0" result="hardAlpha"/>
<feOffset/>
<feGaussianBlur stdDeviation="1.5"/>
<feComposite in2="hardAlpha" operator="out"/>
<feColorMatrix type="matrix" values="0 0 0 0 0 0 0 0 0 0 0 0 0 0 0 0 0 0 0.25 0"/>
<feBlend mode="normal" in2="BackgroundImageFix" result="effect1_dropShadow_2_2"/>
<feBlend mode="normal" in="SourceGraphic" in2="effect1_dropShadow_2_2" result="shape"/>
</filter>
<filter id="filter4_i_2_2" x="28" y="76" width="62.0652" height="57.9834" filterUnits="userSpaceOnUse" color-interpolation-filters="sRGB">
<feFlood flood-opacity="0" result="BackgroundImageFix"/>
<feBlend mode="normal" in="SourceGraphic" in2="BackgroundImageFix" result="shape"/>
<feColorMatrix in="SourceAlpha" type="matrix" values="0 0 0 0 0 0 0 0 0 0 0 0 0 0 0 0 0 0 127 0" result="hardAlpha"/>
<feOffset dx="-5"/>
<feGaussianBlur stdDeviation="2.5"/>
<feComposite in2="hardAlpha" operator="arithmetic" k2="-1" k3="1"/>
<feColorMatrix type="matrix" values="0 0 0 0 0 0 0 0 0 0 0 0 0 0 0 0 0 0 0.25 0"/>
<feBlend mode="normal" in2="shape" result="effect1_innerShadow_2_2"/>
</filter>
</defs>
</svg>
